<svg id="svg" xmlns="http://www.w3.org/2000/svg" xmlns:xlink="http://www.w3.org/1999/xlink" width="400" height="400" viewBox="0, 0, 400,400"><g id="svgg"><path id="path0" d="M96.000 64.000 C 96.000 71.263,98.667 72.000,124.957 72.000 L 153.914 72.000 84.957 141.042 C 19.916 206.162,6.585 224.000,22.958 224.000 C 26.785 224.000,60.985 192.969,98.958 155.043 L 168.000 86.086 168.000 115.043 C 168.000 141.333,168.737 144.000,176.000 144.000 C 183.515 144.000,184.000 141.333,184.000 100.000 L 184.000 56.000 140.000 56.000 C 98.667 56.000,96.000 56.485,96.000 64.000 M272.000 244.000 L 272.000 400.000 328.000 400.000 L 384.000 400.000 384.000 244.000 L 384.000 88.000 328.000 88.000 L 272.000 88.000 272.000 244.000 M144.000 296.000 L 144.000 400.000 200.000 400.000 L 256.000 400.000 256.000 296.000 L 256.000 192.000 200.000 192.000 L 144.000 192.000 144.000 296.000 M16.000 340.000 L 16.000 400.000 72.000 400.000 L 128.000 400.000 128.000 340.000 L 128.000 280.000 72.000 280.000 L 16.000 280.000 16.000 340.000 " stroke="none" fill="#000000" fill-rule="evenodd"></path></g></svg>